<svg width="33" height="33" viewBox="0 0 33 33" fill="none" xmlns="http://www.w3.org/2000/svg">
<g clip-path="url(#clip0)">
<path d="M13.75 33C6.1875 33 0 26.8125 0 19.25C0 11.6875 6.1875 5.5 13.75 5.5C21.3125 5.5 27.5 11.6875 27.5 19.25C27.5 26.8125 21.3125 33 13.75 33ZM13.75 6.875C6.875 6.875 1.375 12.375 1.375 19.25C1.375 26.125 6.875 31.625 13.75 31.625C20.625 31.625 26.125 26.125 26.125 19.25C26.125 12.375 20.625 6.875 13.75 6.875Z" fill="white"/>
<path d="M13.75 28.1875C8.8 28.1875 4.8125 24.2 4.8125 19.25C4.8125 14.3 8.8 10.3125 13.75 10.3125C18.7 10.3125 22.6875 14.3 22.6875 19.25C22.6875 24.2 18.7 28.1875 13.75 28.1875ZM13.75 11.6875C9.625 11.6875 6.1875 15.125 6.1875 19.25C6.1875 23.375 9.625 26.8125 13.75 26.8125C17.875 26.8125 21.3125 23.375 21.3125 19.25C21.3125 15.125 17.875 11.6875 13.75 11.6875Z" fill="white"/>
<path d="M13.75 23.375C11.4125 23.375 9.625 21.5875 9.625 19.25C9.625 16.9125 11.4125 15.125 13.75 15.125C16.0875 15.125 17.875 16.9125 17.875 19.25C17.875 21.5875 16.0875 23.375 13.75 23.375ZM13.75 16.5C12.2375 16.5 11 17.7375 11 19.25C11 20.7625 12.2375 22 13.75 22C15.2625 22 16.5 20.7625 16.5 19.25C16.5 17.7375 15.2625 16.5 13.75 16.5Z" fill="white"/>
<path d="M13.7501 19.9376C13.6126 19.9376 13.3376 19.9376 13.2001 19.8001C12.9251 19.5251 12.9251 19.1126 13.2001 18.8376L23.5126 8.5251C23.7876 8.2501 24.2001 8.2501 24.4751 8.5251C24.7501 8.8001 24.7501 9.2126 24.4751 9.4876L14.1626 19.8001C14.1626 19.9376 13.8876 19.9376 13.7501 19.9376Z" fill="white"/>
<path d="M27.5 9.625H24.0625C23.65 9.625 23.375 9.35 23.375 8.9375V5.5C23.375 5.3625 23.5125 5.0875 23.5125 4.95L28.325 0.1375C28.6 0 28.875 0 29.15 0C29.425 0.1375 29.5625 0.4125 29.5625 0.6875V3.4375H32.3125C32.5875 3.4375 32.8625 3.575 33 3.85C33 4.125 33 4.4 32.8625 4.675L28.05 9.4875C27.9125 9.4875 27.6375 9.625 27.5 9.625ZM24.75 8.25H27.225L30.6625 4.8125H28.875C28.4625 4.8125 28.1875 4.5375 28.1875 4.125V2.3375L24.75 5.775V8.25Z" fill="white"/>
</g>
<defs>
<clipPath id="clip0">
<rect width="33" height="33" fill="white"/>
</clipPath>
</defs>
</svg>
