<svg width="33" height="33" viewBox="0 0 33 33" fill="none" xmlns="http://www.w3.org/2000/svg">
<path d="M31.114 3.96174C30.2697 2.54615 29.3458 1.78716 29.3113 1.75918C28.7736 1.31162 28.2674 0.919745 27.8067 0.594385C26.5188 -0.31537 24.7742 -0.164937 23.8351 0.936954C22.862 2.07881 22.0368 3.40615 21.3823 4.88226L21.3752 4.89824C20.8585 6.06356 20.2155 7.51382 20.2496 8.81925C20.274 9.75015 20.9003 10.5786 21.9681 11.0921C22.2209 11.2136 24.5858 12.0707 25.3062 12.2787C25.4768 12.3279 25.6634 12.393 25.7539 12.5018C25.8056 12.5639 25.7934 12.7648 25.6698 13.0286C24.4632 15.6039 23.2763 17.8908 21.9347 20.2259C21.8009 20.4588 21.8812 20.7562 22.1141 20.89C22.347 21.0238 22.6444 20.9435 22.7782 20.7105C24.1336 18.3515 25.3324 16.0417 26.5507 13.4413C26.8412 12.8211 26.8238 12.2665 26.5015 11.8794C26.2427 11.5684 25.8884 11.4343 25.576 11.3441C24.8782 11.1426 22.6104 10.3215 22.3896 10.2154C22.0453 10.0499 21.2425 9.57999 21.2219 8.79392C21.1935 7.70769 21.7873 6.36861 22.2643 5.29263L22.2714 5.27665C22.8879 3.88626 23.663 2.63858 24.5753 1.56808C25.1913 0.845302 26.3641 0.766669 27.2452 1.38909C27.685 1.69969 28.1706 2.07584 28.6925 2.51006C28.7009 2.51696 29.5423 3.21395 30.298 4.49348C31.3016 6.19272 31.6894 8.06495 31.4507 10.0583C31.2363 11.8478 30.6304 13.6148 30.1264 14.9542C29.819 15.771 29.4739 16.607 29.071 17.5098C28.611 18.5412 28.117 19.5526 27.6029 20.5158C26.675 22.2543 25.5984 23.9855 24.4031 25.6612C23.8746 26.4021 23.3296 27.1321 22.7426 27.828C22.4236 28.2061 22.0927 28.5744 21.7465 28.928C20.0093 30.7022 17.8739 31.9136 15.34 32.0193C13.8555 32.0813 12.8127 31.7546 12.7978 31.7499C12.1542 31.5497 11.5744 31.3468 11.0744 31.1468C10.0727 30.7461 9.50063 29.7193 9.77205 28.8092C10.1739 27.4613 10.7992 26.1321 11.6304 24.8584L11.6396 24.8442C12.2829 23.8584 13.0836 22.6315 14.0105 22.0643C14.6811 21.6539 15.5122 22.0718 15.8384 22.2706C16.0477 22.3982 17.9704 23.8542 18.519 24.3301C18.7646 24.5431 19.0699 24.7674 19.4717 24.8154C19.9721 24.8753 20.4467 24.5881 20.8089 24.007C21.0831 23.5671 21.3578 23.1188 21.6252 22.6747C21.7638 22.4446 21.6896 22.1456 21.4594 22.0071C21.2292 21.8684 20.9304 21.9427 20.7918 22.1729C20.527 22.6128 20.2549 23.0568 19.9834 23.4924C19.8293 23.7396 19.6676 23.8589 19.5872 23.8496C19.4466 23.8328 19.2905 23.7116 19.1564 23.5952C18.5899 23.104 16.5842 21.586 16.3446 21.4399C15.3329 20.8233 14.297 20.7485 13.5027 21.2345C12.3886 21.9162 11.5216 23.2449 10.8249 24.3126L10.8156 24.3268C9.93318 25.679 9.26834 27.0936 8.83967 28.5313C8.42601 29.9188 9.24888 31.4643 10.713 32.0501C11.2367 32.2596 11.8409 32.4712 12.5034 32.6771C12.5473 32.6913 13.5185 33.0001 14.9597 33.0001C15.0824 33.0001 15.2085 32.9979 15.3377 32.993C16.3046 32.9567 17.2662 32.7765 18.1801 32.4585C18.7689 32.2536 19.3373 31.9914 19.876 31.6774C22.0948 30.3842 23.7254 28.2865 25.1951 26.2262C26.4147 24.5164 27.5135 22.7493 28.4611 20.9739C28.986 19.9905 29.4901 18.9584 29.9595 17.9062C30.3702 16.9855 30.7227 16.132 31.0369 15.2969C31.5601 13.9061 32.1897 12.0671 32.4166 10.1741C32.7488 7.40173 31.8916 5.26563 31.114 3.96174Z" fill="white"/>
<path d="M6.86938 15.4715H8.17243C8.72686 15.4715 9.1779 15.0205 9.1779 14.466V13.0097C9.1779 12.9917 9.19253 12.977 9.21058 12.977H10.6669C11.2213 12.977 11.6724 12.5259 11.6724 11.9715V10.6685C11.6724 10.114 11.2213 9.66299 10.6669 9.66299H9.21051C9.19247 9.66299 9.17784 9.64836 9.17784 9.63031V8.17393C9.17784 7.6195 8.72679 7.16846 8.17237 7.16846H6.86932C6.31489 7.16846 5.86385 7.6195 5.86385 8.17393V9.63031C5.86385 9.64836 5.84922 9.66299 5.83117 9.66299H4.37485C3.82043 9.66299 3.36938 10.114 3.36938 10.6685V11.9715C3.36938 12.5259 3.82043 12.977 4.37485 12.977H5.83124C5.84922 12.977 5.86391 12.9917 5.86391 13.0097V14.466C5.86391 15.0205 6.31496 15.4715 6.86938 15.4715ZM5.83124 12.0042H4.37485C4.35687 12.0042 4.34218 11.9896 4.34218 11.9715V10.6685C4.34218 10.6504 4.35681 10.6358 4.37485 10.6358H5.83124C6.38566 10.6358 6.8367 10.1848 6.8367 9.63037V8.17399C6.8367 8.15594 6.85134 8.14131 6.86938 8.14131H8.17243C8.19048 8.14131 8.20511 8.15594 8.20511 8.17399V9.63037C8.20511 10.1848 8.65615 10.6358 9.21058 10.6358H10.6669C10.6849 10.6358 10.6996 10.6505 10.6996 10.6685V11.9715C10.6996 11.9896 10.6849 12.0042 10.6669 12.0042H9.21051C8.65609 12.0042 8.20504 12.4552 8.20504 13.0097V14.466C8.20504 14.484 8.19041 14.4987 8.17237 14.4987H6.86932C6.85127 14.4987 6.83664 14.484 6.83664 14.466V13.0097C6.8367 12.4552 6.38566 12.0042 5.83124 12.0042Z" fill="white"/>
<path d="M11.6406 20.2698C11.9093 20.2698 12.1555 20.1328 12.2978 19.8983C12.4571 19.6358 12.4489 19.3145 12.2764 19.0597C11.8226 18.3894 11.694 17.5429 11.6634 16.9773C13.4648 15.657 14.5322 13.5622 14.5322 11.3201C14.5322 9.74138 14.0198 8.25065 13.0505 7.00902C12.8852 6.79729 12.5794 6.75959 12.3677 6.92498C12.1559 7.0903 12.1183 7.39594 12.2837 7.60773C13.1182 8.67675 13.5594 9.96046 13.5594 11.3202C13.5594 13.3294 12.564 15.2013 10.8966 16.3277C10.7612 16.4191 10.6808 16.5724 10.6825 16.7358C10.6883 17.3037 10.7748 18.3236 11.2501 19.2345C10.4316 19.0752 9.27468 18.6539 8.53605 17.5464C8.43692 17.3978 8.26412 17.3155 8.08642 17.332C7.89661 17.3496 7.70634 17.3585 7.52098 17.3585C4.19139 17.3585 1.48262 14.6497 1.48262 11.3202C1.48262 7.99058 4.19139 5.28181 7.52098 5.28181C8.66199 5.28181 9.77284 5.6015 10.7334 6.20632C10.9608 6.34954 11.2611 6.28122 11.4042 6.05389C11.5474 5.82657 11.4791 5.52621 11.2518 5.38313C10.1358 4.68046 8.84562 4.30908 7.52098 4.30908C3.65501 4.30908 0.509766 7.45427 0.509766 11.3203C0.509766 15.1863 3.65495 18.3315 7.52098 18.3315C7.64408 18.3315 7.76886 18.3282 7.89416 18.3214C8.99173 19.7643 10.6368 20.1589 11.5481 20.2646C11.5793 20.2681 11.6101 20.2698 11.6406 20.2698Z" fill="white"/>
</svg>
