<svg width="33" height="29" viewBox="0 0 33 29" fill="none" xmlns="http://www.w3.org/2000/svg">
<path d="M30.0996 5.79883H24.5113L23.7909 2.19699C23.6109 1.29633 22.8134 0.642578 21.8949 0.642578H11.1051C10.1866 0.642578 9.38914 1.29633 9.20906 2.19699L8.48867 5.79883H2.90039C1.30112 5.79883 0 7.09994 0 8.69922V25.457C0 27.0563 1.30112 28.3574 2.90039 28.3574H30.0996C31.6989 28.3574 33 27.0563 33 25.457V8.69922C33 7.09994 31.6989 5.79883 30.0996 5.79883ZM11.1051 2.57617H21.8949L22.5395 5.79883H10.4605L11.1051 2.57617ZM31.0664 25.457C31.0664 25.9901 30.6327 26.4238 30.0996 26.4238H2.90039C2.3673 26.4238 1.93359 25.9901 1.93359 25.457V8.69922C1.93359 8.16613 2.3673 7.73242 2.90039 7.73242H30.0996C30.6327 7.73242 31.0664 8.16613 31.0664 8.69922V25.457Z" fill="white"/>
<path d="M16.5 9.92383C12.5551 9.92383 9.3457 13.1332 9.3457 17.0781C9.3457 21.023 12.5551 24.2324 16.5 24.2324C20.4449 24.2324 23.6543 21.023 23.6543 17.0781C23.6543 13.1332 20.4449 9.92383 16.5 9.92383ZM16.5 22.2988C13.6213 22.2988 11.2793 19.9568 11.2793 17.0781C11.2793 14.1995 13.6213 11.8574 16.5 11.8574C19.3787 11.8574 21.7207 14.1995 21.7207 17.0781C21.7207 19.9568 19.3787 22.2988 16.5 22.2988Z" fill="white"/>
<path d="M8.25 9.92383H5.15625C4.62232 9.92383 4.18945 10.3567 4.18945 10.8906C4.18945 11.4246 4.62232 11.8574 5.15625 11.8574H8.25C8.78393 11.8574 9.2168 11.4246 9.2168 10.8906C9.2168 10.3567 8.78393 9.92383 8.25 9.92383Z" fill="white"/>
</svg>
