<svg width="33" height="25" viewBox="0 0 33 25" fill="none" xmlns="http://www.w3.org/2000/svg">
<path d="M28.1702 0.832979C27.7927 0.455413 27.1805 0.455413 26.803 0.832979C26.4254 1.21055 26.4254 1.82266 26.803 2.20022C29.5523 4.94947 31.0663 8.60744 31.0663 12.5002C31.0663 16.393 29.5523 20.051 26.803 22.8002C26.4254 23.1777 26.4254 23.7899 26.803 24.1675C27.1812 24.5457 27.7933 24.5444 28.1702 24.1675C31.2847 21.053 32.9999 16.9095 32.9999 12.5002C32.9999 8.09092 31.2847 3.94742 28.1702 0.832979Z" fill="white"/>
<path d="M25.2427 3.76067C24.8651 3.38316 24.253 3.38316 23.8755 3.76067C23.498 4.13823 23.498 4.75034 23.8755 5.12791C25.8434 7.09573 26.9273 9.71407 26.9273 12.5005C26.9273 15.2869 25.8435 17.9052 23.8755 19.8731C23.4979 20.2507 23.4979 20.8628 23.8755 21.2404C24.2529 21.6178 24.865 21.618 25.2427 21.2404C27.5759 18.9073 28.8609 15.8034 28.8609 12.5004C28.8609 9.19748 27.5758 6.09368 25.2427 3.76067Z" fill="white"/>
<path d="M22.3133 6.68986C21.9357 6.31236 21.3235 6.31236 20.946 6.68986C20.5685 7.06743 20.5685 7.67961 20.946 8.05711C22.132 9.24292 22.7851 10.8209 22.7851 12.5001C22.7851 14.1794 22.132 15.7573 20.946 16.9431C20.5685 17.3206 20.5685 17.9328 20.946 18.3104C21.3235 18.6879 21.9356 18.688 22.3133 18.3104C23.8644 16.7593 24.7187 14.6958 24.7187 12.5001C24.7187 10.3043 23.8644 8.24093 22.3133 6.68986Z" fill="white"/>
<path d="M1.93359 12.5007C1.93359 8.60791 3.44766 4.94994 6.19697 2.20069C6.57454 1.82319 6.57454 1.21101 6.19697 0.833444C5.81947 0.455942 5.20736 0.455877 4.82973 0.833444C1.71523 3.94788 0 8.09138 0 12.5007C0 16.91 1.71523 21.0535 4.82973 24.1679C5.20717 24.5454 5.81941 24.5456 6.19697 24.1679C6.57454 23.7904 6.57454 23.1782 6.19697 22.8007C3.44766 20.0514 1.93359 16.3935 1.93359 12.5007Z" fill="white"/>
<path d="M6.07275 12.5C6.07275 9.71361 7.15653 7.09533 9.12454 5.12745C9.50211 4.74988 9.50211 4.13777 9.12454 3.7602C8.74704 3.38264 8.13487 3.3827 7.7573 3.7602C5.4241 6.09321 4.13916 9.19714 4.13916 12.5C4.13916 15.8029 5.4241 18.9069 7.7573 21.24C8.13538 21.618 8.74749 21.617 9.12454 21.24C9.50205 20.8624 9.50205 20.2503 9.12454 19.8727C7.15653 17.9048 6.07275 15.2865 6.07275 12.5Z" fill="white"/>
<path d="M12.0541 6.68991C11.6766 6.31235 11.0644 6.31235 10.6869 6.68991C9.13575 8.24098 8.28149 10.3044 8.28149 12.5002C8.28149 14.696 9.13575 16.7595 10.6869 18.3106C11.065 18.6886 11.6771 18.6876 12.0541 18.3106C12.4317 17.933 12.4316 17.3208 12.0541 16.9433C10.8682 15.7575 10.2151 14.1796 10.2151 12.5003C10.2151 10.821 10.8682 9.24309 12.0541 8.05729C12.4316 7.67965 12.4316 7.06748 12.0541 6.68991Z" fill="white"/>
<path d="M16.4999 8.42676C14.2538 8.42676 12.4265 10.2541 12.4265 12.5002C12.4265 14.7462 14.2539 16.5736 16.4999 16.5736C18.746 16.5736 20.5734 14.7462 20.5734 12.5002C20.5734 10.2541 18.7461 8.42676 16.4999 8.42676Z" fill="white"/>
</svg>
