<svg width="33" height="33" viewBox="0 0 33 33" fill="none" xmlns="http://www.w3.org/2000/svg">
<g clip-path="url(#clip0)">
<path d="M30.0996 7.79883H24.5113L23.7909 4.19699C23.6109 3.29633 22.8134 2.64258 21.8949 2.64258H11.1051C10.1866 2.64258 9.38914 3.29633 9.20906 4.19699L8.48867 7.79883H2.90039C1.30112 7.79883 0 9.09994 0 10.6992V27.457C0 29.0563 1.30112 30.3574 2.90039 30.3574H30.0996C31.6989 30.3574 33 29.0563 33 27.457V10.6992C33 9.09994 31.6989 7.79883 30.0996 7.79883ZM11.1051 4.57617H21.8949L22.5395 7.79883H10.4605L11.1051 4.57617ZM31.0664 27.457C31.0664 27.9901 30.6327 28.4238 30.0996 28.4238H2.90039C2.3673 28.4238 1.93359 27.9901 1.93359 27.457V10.6992C1.93359 10.1661 2.3673 9.73242 2.90039 9.73242H30.0996C30.6327 9.73242 31.0664 10.1661 31.0664 10.6992V27.457Z" fill="white"/>
<path d="M16.5 11.9238C12.5551 11.9238 9.3457 15.1332 9.3457 19.0781C9.3457 23.023 12.5551 26.2324 16.5 26.2324C20.4449 26.2324 23.6543 23.023 23.6543 19.0781C23.6543 15.1332 20.4449 11.9238 16.5 11.9238ZM16.5 24.2988C13.6213 24.2988 11.2793 21.9568 11.2793 19.0781C11.2793 16.1995 13.6213 13.8574 16.5 13.8574C19.3787 13.8574 21.7207 16.1995 21.7207 19.0781C21.7207 21.9568 19.3787 24.2988 16.5 24.2988Z" fill="white"/>
<path d="M8.25 11.9238H5.15625C4.62232 11.9238 4.18945 12.3567 4.18945 12.8906C4.18945 13.4246 4.62232 13.8574 5.15625 13.8574H8.25C8.78393 13.8574 9.2168 13.4246 9.2168 12.8906C9.2168 12.3567 8.78393 11.9238 8.25 11.9238Z" fill="white"/>
</g>
<defs>
<clipPath id="clip0">
<rect width="33" height="33" fill="white"/>
</clipPath>
</defs>
</svg>
