<svg width="204" height="28" viewBox="0 0 204 28" fill="none" xmlns="http://www.w3.org/2000/svg">
<path d="M18.1601 28L12.7601 20.2H12.4401H6.80007V28H0.320068V0H12.4401C14.9201 0 17.0667 0.413334 18.8801 1.24C20.7201 2.06667 22.1334 3.24 23.1201 4.76C24.1067 6.28 24.6001 8.08 24.6001 10.16C24.6001 12.24 24.0934 14.04 23.0801 15.56C22.0934 17.0533 20.6801 18.2 18.8401 19L25.1201 28H18.1601ZM18.0401 10.16C18.0401 8.58667 17.5334 7.38667 16.5201 6.56C15.5067 5.70667 14.0267 5.28 12.0801 5.28H6.80007V15.04H12.0801C14.0267 15.04 15.5067 14.6133 16.5201 13.76C17.5334 12.9067 18.0401 11.7067 18.0401 10.16Z" fill="white"/>
<path d="M51.4141 22.8V28H29.7341V0H50.8941V5.2H36.1741V11.28H49.1741V16.32H36.1741V22.8H51.4141Z" fill="white"/>
<path d="M68.6901 0C71.1701 0 73.3167 0.413334 75.1301 1.24C76.9701 2.06667 78.3834 3.24 79.3701 4.76C80.3567 6.28 80.8501 8.08 80.8501 10.16C80.8501 12.2133 80.3567 14.0133 79.3701 15.56C78.3834 17.08 76.9701 18.2533 75.1301 19.08C73.3167 19.88 71.1701 20.28 68.6901 20.28H63.0501V28H56.5701V0H68.6901ZM68.3301 15C70.2767 15 71.7567 14.5867 72.7701 13.76C73.7834 12.9067 74.2901 11.7067 74.2901 10.16C74.2901 8.58667 73.7834 7.38667 72.7701 6.56C71.7567 5.70667 70.2767 5.28 68.3301 5.28H63.0501V15H68.3301Z" fill="white"/>
<path d="M90.4951 5.28H81.5351V0H105.935V5.28H96.9751V28H90.4951V5.28Z" fill="white"/>
<path d="M126.455 22H113.455L110.975 28H104.335L116.815 0H123.215L135.735 28H128.935L126.455 22ZM124.415 17.08L119.975 6.36L115.535 17.08H124.415Z" fill="white"/>
<path d="M138.64 0H145.12V22.72H159.16V28H138.64V0Z" fill="white"/>
<path d="M162.781 0H169.261L166.5 11.28L169.261 28H162.781L166.5 11.28L162.781 0Z" fill="white"/>
<path d="M194.346 22H181.346L178.866 28H172.226L184.706 0H191.106L203.626 28H196.826L194.346 22ZM192.306 17.08L187.866 6.36L183.426 17.08H192.306Z" fill="white"/>
</svg>
