<svg width="33" height="33" viewBox="0 0 33 33" fill="none" xmlns="http://www.w3.org/2000/svg">
<g clip-path="url(#clip0)">
<path d="M28.1702 4.83298C27.7927 4.45541 27.1805 4.45541 26.803 4.83298C26.4254 5.21055 26.4254 5.82266 26.803 6.20022C29.5523 8.94947 31.0663 12.6074 31.0663 16.5002C31.0663 20.393 29.5523 24.051 26.803 26.8002C26.4254 27.1777 26.4254 27.7899 26.803 28.1675C27.1812 28.5457 27.7933 28.5444 28.1702 28.1675C31.2847 25.053 32.9999 20.9095 32.9999 16.5002C32.9999 12.0909 31.2847 7.94742 28.1702 4.83298Z" fill="white"/>
<path d="M25.2427 7.76067C24.8651 7.38316 24.253 7.38316 23.8755 7.76067C23.498 8.13823 23.498 8.75034 23.8755 9.12791C25.8434 11.0957 26.9273 13.7141 26.9273 16.5005C26.9273 19.2869 25.8435 21.9052 23.8755 23.8731C23.4979 24.2507 23.4979 24.8628 23.8755 25.2404C24.2529 25.6178 24.865 25.618 25.2427 25.2404C27.5759 22.9073 28.8609 19.8034 28.8609 16.5004C28.8609 13.1975 27.5758 10.0937 25.2427 7.76067Z" fill="white"/>
<path d="M22.3133 10.6899C21.9357 10.3124 21.3235 10.3124 20.946 10.6899C20.5685 11.0674 20.5685 11.6796 20.946 12.0571C22.132 13.2429 22.7851 14.8209 22.7851 16.5001C22.7851 18.1794 22.132 19.7573 20.946 20.9431C20.5685 21.3206 20.5685 21.9328 20.946 22.3104C21.3235 22.6879 21.9356 22.688 22.3133 22.3104C23.8644 20.7593 24.7187 18.6958 24.7187 16.5001C24.7187 14.3043 23.8644 12.2409 22.3133 10.6899Z" fill="white"/>
<path d="M1.93359 16.5007C1.93359 12.6079 3.44766 8.94994 6.19697 6.20069C6.57454 5.82319 6.57454 5.21101 6.19697 4.83344C5.81947 4.45594 5.20736 4.45588 4.82973 4.83344C1.71523 7.94788 0 12.0914 0 16.5007C0 20.91 1.71523 25.0535 4.82973 28.1679C5.20717 28.5454 5.81941 28.5456 6.19697 28.1679C6.57454 27.7904 6.57454 27.1782 6.19697 26.8007C3.44766 24.0514 1.93359 20.3935 1.93359 16.5007Z" fill="white"/>
<path d="M6.07275 16.5C6.07275 13.7136 7.15653 11.0953 9.12454 9.12745C9.50211 8.74988 9.50211 8.13777 9.12454 7.7602C8.74704 7.38264 8.13487 7.3827 7.7573 7.7602C5.4241 10.0932 4.13916 13.1971 4.13916 16.5C4.13916 19.8029 5.4241 22.9069 7.7573 25.24C8.13538 25.618 8.74749 25.617 9.12454 25.24C9.50205 24.8624 9.50205 24.2503 9.12454 23.8727C7.15653 21.9048 6.07275 19.2865 6.07275 16.5Z" fill="white"/>
<path d="M12.0541 10.6899C11.6766 10.3123 11.0644 10.3123 10.6869 10.6899C9.13575 12.241 8.28149 14.3044 8.28149 16.5002C8.28149 18.696 9.13575 20.7595 10.6869 22.3106C11.065 22.6886 11.6771 22.6876 12.0541 22.3106C12.4317 21.933 12.4316 21.3208 12.0541 20.9433C10.8682 19.7575 10.2151 18.1796 10.2151 16.5003C10.2151 14.821 10.8682 13.2431 12.0541 12.0573C12.4316 11.6797 12.4316 11.0675 12.0541 10.6899Z" fill="white"/>
<path d="M16.4999 12.4268C14.2538 12.4268 12.4265 14.2541 12.4265 16.5002C12.4265 18.7462 14.2539 20.5736 16.4999 20.5736C18.746 20.5736 20.5734 18.7462 20.5734 16.5002C20.5734 14.2541 18.7461 12.4268 16.4999 12.4268Z" fill="white"/>
</g>
<defs>
<clipPath id="clip0">
<rect width="33" height="33" fill="white"/>
</clipPath>
</defs>
</svg>
